<svg width="792" height="336" viewBox="0 0 792 336" fill="none" xmlns="http://www.w3.org/2000/svg">
<path d="M0 43.5L75 0L179.5 60V174.5L104 219V104.5L0 43.5Z" fill="#069697"/>
<path d="M11 159L88 113.5V336L11 291V159Z" fill="#069697"/>
<path d="M255.423 158C253.714 158 252.859 157.084 252.859 155.253V108.232C252.859 106.401 253.714 105.485 255.423 105.485H269.119C277.908 105.485 284 106.914 287.393 109.77C290.811 112.626 292.52 116.679 292.52 121.928C292.52 127.177 290.811 131.23 287.393 134.086C284 136.943 277.908 138.371 269.119 138.371H263.553V155.253C263.553 157.084 262.698 158 260.989 158H255.423ZM263.553 129.436H269.083C273.965 129.436 277.286 128.862 279.043 127.714C280.801 126.542 281.68 124.614 281.68 121.928C281.68 119.243 280.801 117.326 279.043 116.179C277.286 115.007 273.965 114.421 269.083 114.421H263.553V129.436ZM301.806 158C300.097 158 299.242 157.084 299.242 155.253V108.232C299.242 106.401 300.097 105.485 301.806 105.485H318.761C326.305 105.485 331.811 106.657 335.277 109.001C338.744 111.32 340.478 115.104 340.478 120.354C340.478 124.26 339.074 127.373 336.266 129.692C333.458 132.011 329.894 133.549 325.573 134.306V134.379C327.917 135.258 329.687 136.479 330.883 138.042C332.079 139.604 333.056 140.971 333.812 142.143L341.869 154.851C343.212 156.95 342.748 158 340.478 158H334.105C332.763 158 331.664 157.28 330.81 155.839L323.412 143.498C322.606 142.18 321.129 140.739 318.981 139.177C316.857 137.59 314.745 136.796 312.646 136.796H309.936V155.253C309.936 157.084 309.081 158 307.372 158H301.806ZM309.936 127.714H316.491C321.374 127.714 324.84 127.165 326.891 126.066C328.966 124.943 330.004 123.173 330.004 120.756C330.004 118.12 329.003 116.411 327.001 115.629C325.023 114.824 322.106 114.421 318.249 114.421H309.936V127.714ZM346.577 131.743C346.577 123.32 348.75 116.63 353.096 111.674C357.441 106.718 363.643 104.24 371.699 104.24C379.756 104.24 385.957 106.718 390.303 111.674C394.648 116.63 396.821 123.32 396.821 131.743C396.821 140.166 394.648 146.855 390.303 151.811C385.957 156.767 379.756 159.245 371.699 159.245C363.643 159.245 357.441 156.767 353.096 151.811C348.75 146.855 346.577 140.166 346.577 131.743ZM358.003 131.743C358.003 137.846 359.089 142.521 361.262 145.769C363.459 148.991 366.938 150.603 371.699 150.603C376.46 150.603 379.927 148.991 382.1 145.769C384.297 142.521 385.396 137.846 385.396 131.743C385.396 125.639 384.297 120.976 382.1 117.753C379.927 114.506 376.46 112.883 371.699 112.883C366.938 112.883 363.459 114.506 361.262 117.753C359.089 120.976 358.003 125.639 358.003 131.743ZM406.144 158C404.435 158 403.58 157.084 403.58 155.253V108.232C403.58 106.401 404.435 105.485 406.144 105.485H435.111C436.942 105.485 437.857 106.279 437.857 107.866V112.187C437.857 113.774 436.942 114.567 435.111 114.567H414.273V127.312H432.108C433.939 127.312 434.854 128.105 434.854 129.692V134.013C434.854 135.6 433.939 136.394 432.108 136.394H414.273V155.253C414.273 157.084 413.419 158 411.71 158H406.144ZM446.96 158C445.251 158 444.396 157.084 444.396 155.253V108.232C444.396 106.401 445.251 105.485 446.96 105.485H478.381C480.212 105.485 481.127 106.279 481.127 107.866V112.187C481.127 113.774 480.212 114.567 478.381 114.567H455.09V126.213H476.44C478.271 126.213 479.187 127.006 479.187 128.593V132.915C479.187 134.501 478.271 135.295 476.44 135.295H455.09V148.918H479.553C481.384 148.918 482.299 149.711 482.299 151.298V155.62C482.299 157.207 481.384 158 479.553 158H446.96ZM489.644 154.082C488.13 152.934 487.764 151.774 488.545 150.603L491.365 146.354C492.293 144.963 493.648 144.89 495.43 146.135C496.797 147.087 498.58 148.076 500.777 149.101C502.999 150.102 505.33 150.603 507.771 150.603C509.48 150.603 511.128 150.407 512.715 150.017C514.302 149.626 515.511 148.869 516.341 147.746C517.171 146.623 517.586 145.292 517.586 143.754C517.586 142.656 517.403 141.691 517.037 140.861C516.67 140.031 516.072 139.348 515.242 138.811C514.412 138.273 513.558 137.822 512.679 137.456C511.141 136.821 509.2 136.198 506.856 135.588C504.537 134.953 502.242 134.196 499.971 133.317C497.945 132.536 496.089 131.462 494.405 130.095C492.72 128.728 491.414 127.189 490.486 125.48C489.559 123.771 489.095 121.489 489.095 118.632C489.095 115.239 490.193 112.333 492.391 109.917C494.588 107.5 497.115 105.949 499.971 105.266C502.828 104.582 505.708 104.24 508.614 104.24C511.495 104.24 514.461 104.68 517.513 105.559C520.589 106.438 522.908 107.536 524.471 108.854C526.009 110.148 526.387 111.32 525.606 112.37L522.64 116.362C521.639 117.729 520.296 117.839 518.611 116.691C517.537 115.959 516.06 115.141 514.18 114.238C512.325 113.334 510.384 112.883 508.357 112.883C506.917 112.883 505.586 113.005 504.366 113.249C503.169 113.493 502.107 114.079 501.18 115.007C500.252 115.935 499.788 117.082 499.788 118.449C499.788 119.768 500.13 120.842 500.813 121.672C501.497 122.478 502.254 123.088 503.084 123.503C503.914 123.894 504.756 124.223 505.611 124.492C508.248 125.346 510.604 126.103 512.679 126.762C514.754 127.397 516.67 128.105 518.428 128.886C520.87 129.985 522.737 131.083 524.031 132.182C525.325 133.281 526.387 134.782 527.217 136.687C528.072 138.591 528.499 140.861 528.499 143.498C528.499 147.404 527.254 150.639 524.764 153.203C522.273 155.742 519.502 157.377 516.451 158.11C513.423 158.867 510.469 159.245 507.588 159.245C503.34 159.245 499.886 158.83 497.225 158C494.563 157.194 492.037 155.888 489.644 154.082ZM535.294 154.082C533.781 152.934 533.415 151.774 534.196 150.603L537.016 146.354C537.943 144.963 539.298 144.89 541.081 146.135C542.448 147.087 544.23 148.076 546.427 149.101C548.649 150.102 550.98 150.603 553.422 150.603C555.131 150.603 556.779 150.407 558.366 150.017C559.953 149.626 561.161 148.869 561.991 147.746C562.821 146.623 563.236 145.292 563.236 143.754C563.236 142.656 563.053 141.691 562.687 140.861C562.321 140.031 561.723 139.348 560.893 138.811C560.062 138.273 559.208 137.822 558.329 137.456C556.791 136.821 554.85 136.198 552.506 135.588C550.187 134.953 547.892 134.196 545.622 133.317C543.595 132.536 541.74 131.462 540.055 130.095C538.371 128.728 537.064 127.189 536.137 125.48C535.209 123.771 534.745 121.489 534.745 118.632C534.745 115.239 535.844 112.333 538.041 109.917C540.238 107.5 542.765 105.949 545.622 105.266C548.478 104.582 551.359 104.24 554.264 104.24C557.145 104.24 560.111 104.68 563.163 105.559C566.239 106.438 568.559 107.536 570.121 108.854C571.659 110.148 572.038 111.32 571.256 112.37L568.29 116.362C567.289 117.729 565.946 117.839 564.262 116.691C563.188 115.959 561.71 115.141 559.831 114.238C557.975 113.334 556.034 112.883 554.008 112.883C552.567 112.883 551.237 113.005 550.016 113.249C548.82 113.493 547.758 114.079 546.83 115.007C545.902 115.935 545.438 117.082 545.438 118.449C545.438 119.768 545.78 120.842 546.464 121.672C547.147 122.478 547.904 123.088 548.734 123.503C549.564 123.894 550.407 124.223 551.261 124.492C553.898 125.346 556.254 126.103 558.329 126.762C560.404 127.397 562.321 128.105 564.079 128.886C566.52 129.985 568.388 131.083 569.682 132.182C570.976 133.281 572.038 134.782 572.868 136.687C573.722 138.591 574.149 140.861 574.149 143.498C574.149 147.404 572.904 150.639 570.414 153.203C567.924 155.742 565.153 157.377 562.101 158.11C559.074 158.867 556.12 159.245 553.239 159.245C548.991 159.245 545.536 158.83 542.875 158C540.214 157.194 537.687 155.888 535.294 154.082ZM582.886 158C581.177 158 580.322 157.084 580.322 155.253V108.232C580.322 106.401 581.177 105.485 582.886 105.485H588.452C590.161 105.485 591.016 106.401 591.016 108.232V155.253C591.016 157.084 590.161 158 588.452 158H582.886ZM597.774 131.743C597.774 123.32 599.947 116.63 604.293 111.674C608.639 106.718 614.84 104.24 622.896 104.24C630.953 104.24 637.154 106.718 641.5 111.674C645.846 116.63 648.019 123.32 648.019 131.743C648.019 140.166 645.846 146.855 641.5 151.811C637.154 156.767 630.953 159.245 622.896 159.245C614.84 159.245 608.639 156.767 604.293 151.811C599.947 146.855 597.774 140.166 597.774 131.743ZM609.2 131.743C609.2 137.846 610.287 142.521 612.459 145.769C614.657 148.991 618.136 150.603 622.896 150.603C627.657 150.603 631.124 148.991 633.297 145.769C635.494 142.521 636.593 137.846 636.593 131.743C636.593 125.639 635.494 120.976 633.297 117.753C631.124 114.506 627.657 112.883 622.896 112.883C618.136 112.883 614.657 114.506 612.459 117.753C610.287 120.976 609.2 125.639 609.2 131.743ZM657.341 158C655.632 158 654.777 157.084 654.777 155.253V108.232C654.777 106.401 655.632 105.485 657.341 105.485H662.761C664.86 105.485 666.447 106.34 667.521 108.049L686.198 138.042H686.455C686.333 136.577 686.271 135.112 686.271 133.647V108.232C686.271 106.401 687.126 105.485 688.835 105.485H694.401C696.11 105.485 696.965 106.401 696.965 108.232V155.253C696.965 157.084 696.11 158 694.401 158H689.348C687.248 158 685.661 157.146 684.587 155.437L665.544 124.895H665.288C665.41 126.359 665.471 127.824 665.471 129.289V155.253C665.471 157.084 664.616 158 662.907 158H657.341ZM704.786 158C703.028 158 702.454 157.194 703.064 155.583L721.009 108.452C721.766 106.474 722.913 105.485 724.451 105.485H729.578C731.116 105.485 732.264 106.474 733.021 108.452L750.965 155.583C751.575 157.194 751.001 158 749.244 158H743.421C741.81 158 740.687 157.158 740.052 155.473L736.316 145.622H717.713L713.978 155.473C713.343 157.158 712.22 158 710.608 158H704.786ZM721.119 136.54H732.911L728.406 124.895C727.869 123.527 727.54 122.539 727.417 121.928C727.32 121.293 727.21 120.366 727.088 119.145H726.941C726.819 120.366 726.697 121.293 726.575 121.928C726.478 122.539 726.16 123.527 725.623 124.895L721.119 136.54ZM757.797 158C756.088 158 755.233 157.084 755.233 155.253V108.232C755.233 106.401 756.088 105.485 757.797 105.485H763.729C765.194 105.485 765.927 106.401 765.927 108.232V148.918H787.277C789.108 148.918 790.023 149.711 790.023 151.298V155.62C790.023 157.207 789.108 158 787.277 158H757.797ZM255.423 239C253.714 239 252.859 238.084 252.859 236.253V189.232C252.859 187.401 253.714 186.485 255.423 186.485H272.378C279.922 186.485 285.428 187.657 288.895 190.001C292.361 192.32 294.095 196.104 294.095 201.354C294.095 205.26 292.691 208.373 289.883 210.692C287.076 213.011 283.511 214.549 279.19 215.306V215.379C281.534 216.258 283.304 217.479 284.5 219.042C285.696 220.604 286.673 221.971 287.43 223.143L295.486 235.851C296.829 237.95 296.365 239 294.095 239H287.723C286.38 239 285.281 238.28 284.427 236.839L277.029 224.498C276.224 223.18 274.747 221.739 272.598 220.177C270.474 218.59 268.362 217.796 266.263 217.796H263.553V236.253C263.553 238.084 262.698 239 260.989 239H255.423ZM263.553 208.714H270.108C274.991 208.714 278.458 208.165 280.508 207.066C282.583 205.943 283.621 204.173 283.621 201.756C283.621 199.12 282.62 197.411 280.618 196.629C278.641 195.824 275.723 195.421 271.866 195.421H263.553V208.714ZM305.468 239C303.759 239 302.904 238.084 302.904 236.253V189.232C302.904 187.401 303.759 186.485 305.468 186.485H336.889C338.72 186.485 339.635 187.279 339.635 188.866V193.187C339.635 194.774 338.72 195.567 336.889 195.567H313.598V207.213H334.948C336.779 207.213 337.694 208.006 337.694 209.593V213.915C337.694 215.501 336.779 216.295 334.948 216.295H313.598V229.918H338.061C339.892 229.918 340.807 230.711 340.807 232.298V236.62C340.807 238.207 339.892 239 338.061 239H305.468ZM350.093 239C348.384 239 347.529 238.084 347.529 236.253V189.232C347.529 187.401 348.384 186.485 350.093 186.485H355.659C357.368 186.485 358.223 187.401 358.223 189.232V203.807C358.223 205.272 358.162 206.737 358.04 208.202H358.296L376.094 188.646C377.412 187.206 378.535 186.485 379.463 186.485H386.824C389.68 186.485 390.144 187.535 388.215 189.635L371.553 207.872L389.387 235.851C390.73 237.95 390.266 239 387.996 239H381.147C379.878 239 378.779 238.28 377.852 236.839L364.375 215.709L358.223 222.63V236.253C358.223 238.084 357.368 239 355.659 239H350.093ZM397.721 239C396.012 239 395.157 238.084 395.157 236.253V189.232C395.157 187.401 396.012 186.485 397.721 186.485H403.653C405.118 186.485 405.851 187.401 405.851 189.232V229.918H427.201C429.032 229.918 429.947 230.711 429.947 232.298V236.62C429.947 238.207 429.032 239 427.201 239H397.721ZM433.813 239C432.055 239 431.481 238.194 432.092 236.583L450.036 189.452C450.793 187.474 451.94 186.485 453.479 186.485H458.605C460.144 186.485 461.291 187.474 462.048 189.452L479.992 236.583C480.603 238.194 480.029 239 478.271 239H472.448C470.837 239 469.714 238.158 469.079 236.473L465.344 226.622H446.74L443.005 236.473C442.37 238.158 441.247 239 439.636 239H433.813ZM450.146 217.54H461.938L457.434 205.895C456.896 204.527 456.567 203.539 456.445 202.928C456.347 202.293 456.237 201.366 456.115 200.145H455.969C455.847 201.366 455.725 202.293 455.603 202.928C455.505 203.539 455.188 204.527 454.65 205.895L450.146 217.54ZM486.824 239C485.115 239 484.261 238.084 484.261 236.253V189.232C484.261 187.401 485.115 186.485 486.824 186.485H497.444C498.86 186.485 499.874 187.462 500.484 189.415L510.408 221.532C510.848 222.923 511.153 224.071 511.324 224.974C511.495 225.853 511.641 226.903 511.763 228.124H511.983C512.105 226.903 512.251 225.853 512.422 224.974C512.593 224.071 512.898 222.923 513.338 221.532L523.262 189.415C523.873 187.462 524.886 186.485 526.302 186.485H536.922C538.631 186.485 539.485 187.401 539.485 189.232V236.253C539.485 238.084 538.631 239 536.922 239H531.355C529.646 239 528.792 238.084 528.792 236.253V206.004C528.792 204.54 528.853 203.075 528.975 201.61H528.719L518.135 236.034C517.525 238.011 516.475 239 514.986 239H508.76C507.271 239 506.221 238.011 505.611 236.034L495.027 201.61H494.771C494.893 203.075 494.954 204.54 494.954 206.004V236.253C494.954 238.084 494.1 239 492.391 239H486.824ZM547.306 239C545.548 239 544.975 238.194 545.585 236.583L563.529 189.452C564.286 187.474 565.434 186.485 566.972 186.485H572.099C573.637 186.485 574.784 187.474 575.541 189.452L593.485 236.583C594.096 238.194 593.522 239 591.764 239H585.941C584.33 239 583.207 238.158 582.572 236.473L578.837 226.622H560.233L556.498 236.473C555.863 238.158 554.74 239 553.129 239H547.306ZM563.639 217.54H575.431L570.927 205.895C570.39 204.527 570.06 203.539 569.938 202.928C569.84 202.293 569.73 201.366 569.608 200.145H569.462C569.34 201.366 569.218 202.293 569.096 202.928C568.998 203.539 568.681 204.527 568.144 205.895L563.639 217.54Z" fill="#069697"/>
</svg>
