<svg width="24" height="24" viewBox="0 0 24 24" fill="none" xmlns="http://www.w3.org/2000/svg">
<path fill-rule="evenodd" clip-rule="evenodd" d="M12.1355 15.0067C11.9684 14.9793 11.7965 15.0032 11.6447 15.0748C11.4929 15.1464 11.369 15.262 11.291 15.4049C11.213 15.5478 11.185 15.7105 11.2109 15.8695C11.2369 16.0286 11.3155 16.1756 11.4354 16.2894C11.5552 16.4032 11.7102 16.4778 11.8777 16.5024C12.0452 16.5271 12.2167 16.5004 12.3672 16.4264C12.5178 16.3524 12.6396 16.2348 12.715 16.0907C12.7904 15.9466 12.8156 15.7834 12.7868 15.6248C12.7585 15.4707 12.6808 15.3285 12.5642 15.2179C12.4477 15.1072 12.2979 15.0335 12.1355 15.0067ZM12.1155 16.1389C12.043 16.1586 11.9663 16.1596 11.8933 16.1417C11.8203 16.1238 11.7537 16.0877 11.7003 16.0371C11.647 15.9864 11.609 15.9232 11.5901 15.8539C11.5712 15.7846 11.5723 15.7118 11.5931 15.643C11.612 15.5767 11.6489 15.5163 11.7 15.4677C11.7512 15.4191 11.8149 15.3841 11.8847 15.3662C11.9572 15.3464 12.0339 15.3454 12.1069 15.3634C12.1799 15.3813 12.2466 15.4174 12.2999 15.468C12.3532 15.5186 12.3913 15.5818 12.4101 15.6511C12.429 15.7204 12.428 15.7932 12.4072 15.862C12.3882 15.9283 12.3513 15.9887 12.3001 16.0373C12.2489 16.0858 12.1853 16.1209 12.1155 16.1389Z" fill="white"/>
<path d="M18.5784 8.28677C18.486 8.28677 18.3974 8.3216 18.3321 8.38359C18.2668 8.44559 18.2301 8.52967 18.2301 8.61735V13.8347C18.2301 13.868 18.2162 13.9 18.1914 13.9235C18.1665 13.9471 18.1329 13.9603 18.0978 13.9603H5.90796C5.89022 13.9609 5.87254 13.958 5.85598 13.952C5.83941 13.9459 5.8243 13.9367 5.81155 13.925C5.7988 13.9133 5.78866 13.8993 5.78173 13.8837C5.77481 13.8682 5.77125 13.8516 5.77126 13.8347V6.32561C5.77126 6.2923 5.7852 6.26034 5.81002 6.23679C5.83484 6.21323 5.86851 6.19999 5.90361 6.19999H18.0934C18.1108 6.19999 18.128 6.20324 18.1441 6.20956C18.1601 6.21587 18.1747 6.22512 18.187 6.23679C18.1993 6.24845 18.209 6.2623 18.2157 6.27754C18.2223 6.29278 18.2258 6.30912 18.2258 6.32561V7.15702C18.2197 7.24233 18.2487 7.32655 18.3067 7.392C18.3646 7.45745 18.4471 7.49903 18.5367 7.50802C18.6262 7.517 18.716 7.49269 18.7871 7.44019C18.8582 7.38768 18.9051 7.31107 18.918 7.22644V6.17768C18.918 6.00934 18.8475 5.8479 18.7221 5.72887C18.5967 5.60984 18.4266 5.54297 18.2493 5.54297H5.74862C5.57118 5.5434 5.40114 5.6105 5.27567 5.72959C5.1502 5.84869 5.07951 6.01008 5.07905 6.17851V13.9785C5.07905 14.1468 5.1495 14.3083 5.27491 14.4273C5.40032 14.5463 5.5704 14.6132 5.74775 14.6132H18.2519C18.3397 14.6133 18.4266 14.597 18.5077 14.5652C18.5888 14.5334 18.6626 14.4867 18.7247 14.4278C18.7868 14.369 18.836 14.2991 18.8697 14.2221C18.9033 14.1451 18.9206 14.0626 18.9206 13.9793V8.54958C18.9041 8.47508 18.8611 8.40824 18.7988 8.36036C18.7364 8.31248 18.6586 8.28648 18.5784 8.28677Z" fill="white"/>
<path fill-rule="evenodd" clip-rule="evenodd" d="M12.8902 9.3661H13.3186C13.8157 9.3661 14.1501 9.73883 14.1492 10.2967C14.1492 10.8248 13.8062 11.214 13.3342 11.2215H12.8937C12.8352 11.2214 12.7792 11.1994 12.7378 11.1603C12.7148 11.1373 12.6969 11.1102 12.685 11.0805C12.6732 11.0509 12.6678 11.0193 12.669 10.9876V9.57685C12.6695 9.52123 12.6929 9.468 12.7342 9.42859C12.7756 9.38919 12.8316 9.36675 12.8902 9.3661ZM13.1139 10.7975H13.3273C13.5902 10.7934 13.7095 10.5413 13.7095 10.2909C13.7095 10.1727 13.6808 9.78428 13.3203 9.78428H13.1139V10.7975Z" fill="white"/>
<path fill-rule="evenodd" clip-rule="evenodd" d="M12.3512 10.9587C12.3512 10.9587 11.7705 9.49834 11.7687 9.49503C11.7494 9.45063 11.7167 9.41265 11.6747 9.38588C11.6327 9.35911 11.5833 9.34475 11.5327 9.34462C11.4819 9.34514 11.4324 9.35973 11.3901 9.38659C11.3479 9.41346 11.3149 9.45143 11.295 9.49586C11.295 9.49586 10.7108 10.9529 10.7082 10.9578C10.6939 11.0082 10.6998 11.0619 10.7247 11.1084C10.7497 11.1549 10.792 11.191 10.8434 11.2096C10.8947 11.2282 10.9516 11.2281 11.0028 11.2092C11.0541 11.1903 11.0962 11.1541 11.1209 11.1074L11.208 10.8793H11.8418L11.9289 11.1066C11.9497 11.1588 11.9915 11.201 12.045 11.2239C12.0715 11.2353 12.1002 11.2415 12.1292 11.2424C12.1583 11.2433 12.1873 11.2387 12.2145 11.2289C12.2417 11.2191 12.2666 11.2044 12.2878 11.1855C12.309 11.1666 12.3261 11.1439 12.3381 11.1187C12.3501 11.0935 12.3567 11.0664 12.3576 11.0388C12.3585 11.0112 12.3537 10.9837 12.3434 10.9578L12.3512 10.9587ZM11.3812 10.4628L11.5327 10.0868L11.6816 10.4595L11.3812 10.4628Z" fill="white"/>
<path d="M9.88501 10.7342C9.91189 10.7236 9.94073 10.7182 9.96984 10.7182C10.0286 10.7184 10.0848 10.7407 10.1263 10.7802C10.1677 10.8197 10.191 10.8732 10.191 10.9289V11.7686H14.6516V8.82231H10.191V9.95041C10.191 10.0061 10.1677 10.0595 10.1262 10.0988C10.0847 10.1382 10.0285 10.1603 9.96984 10.1603C9.91119 10.1603 9.85493 10.1382 9.81346 10.0988C9.77198 10.0595 9.74868 10.0061 9.74868 9.95041V8.72314C9.74891 8.63772 9.78476 8.55587 9.8484 8.49547C9.91203 8.43507 9.99827 8.40104 10.0883 8.40082H14.7543C14.8445 8.40082 14.9309 8.43476 14.9948 8.49518C15.0586 8.5556 15.0946 8.63758 15.0948 8.72314V11.8636C15.0946 11.9492 15.0586 12.0312 14.9948 12.0916C14.9309 12.152 14.8445 12.1859 14.7543 12.1859H10.0883C9.99827 12.1857 9.91203 12.1517 9.8484 12.0913C9.78476 12.0309 9.74891 11.949 9.74868 11.8636V10.9289C9.74857 10.9013 9.7542 10.8739 9.76527 10.8483C9.77633 10.8228 9.7926 10.7995 9.81315 10.78C9.8337 10.7604 9.85812 10.7448 9.88501 10.7342Z" fill="white"/>
<path fill-rule="evenodd" clip-rule="evenodd" d="M19.9691 4H4.03004C3.75686 4 3.49486 4.10301 3.30169 4.28636C3.10852 4.46971 3 4.71839 3 4.97769V16.5223C3.00092 16.7816 3.10983 17.0299 3.30296 17.2133C3.4961 17.3966 3.75778 17.5 4.03091 17.5008H19.97C20.1052 17.5008 20.2392 17.4755 20.3641 17.4264C20.4891 17.3773 20.6027 17.3053 20.6983 17.2145C20.794 17.1237 20.8698 17.0159 20.9216 16.8973C20.9734 16.7787 21 16.6515 21 16.5231V4.97851C21 4.85001 20.9733 4.72277 20.9215 4.60405C20.8697 4.48533 20.7938 4.37746 20.6981 4.2866C20.6023 4.19574 20.4887 4.12366 20.3636 4.07448C20.2385 4.02531 20.1045 4 19.9691 4ZM19.835 16.8438H4.16239C4.03858 16.8419 3.92049 16.794 3.83342 16.7104C3.74636 16.6268 3.69723 16.5142 3.69656 16.3967V5.10661C3.6977 4.9888 3.74751 4.87613 3.83527 4.79282C3.92304 4.70951 4.04175 4.66223 4.16587 4.66116H19.8385C19.9641 4.66116 20.0846 4.70852 20.1734 4.79284C20.2622 4.87715 20.3121 4.99151 20.3121 5.11074V16.3967C20.3118 16.4558 20.2992 16.5143 20.275 16.5687C20.2508 16.6232 20.2156 16.6726 20.1713 16.7142C20.1269 16.7557 20.0744 16.7885 20.0167 16.8108C19.959 16.833 19.8973 16.8442 19.835 16.8438Z" fill="white"/>
<path fill-rule="evenodd" clip-rule="evenodd" d="M7.70182 18.0388H16.2956C16.3737 18.0388 16.4511 18.0534 16.5232 18.0818C16.5954 18.1102 16.6609 18.1518 16.7161 18.2042C16.7714 18.2566 16.8152 18.3188 16.8451 18.3873C16.8749 18.4558 16.8903 18.5292 16.8903 18.6033V19.4364C16.8903 19.5105 16.8749 19.5838 16.845 19.6522C16.8151 19.7207 16.7713 19.7829 16.7161 19.8352C16.6609 19.8876 16.5953 19.9291 16.5231 19.9573C16.451 19.9856 16.3737 20.0001 16.2956 20H7.70182C7.5441 20 7.39284 19.9405 7.28131 19.8347C7.16978 19.7288 7.10713 19.5852 7.10713 19.4355V18.6033C7.10713 18.5292 7.12251 18.4558 7.1524 18.3873C7.18228 18.3188 7.22609 18.2566 7.28131 18.2042C7.33653 18.1518 7.40209 18.1102 7.47424 18.0818C7.54639 18.0534 7.62372 18.0388 7.70182 18.0388ZM7.87596 19.3438H16.1206C16.1407 19.3429 16.1597 19.3347 16.1735 19.3208C16.1873 19.3069 16.1949 19.2885 16.1946 19.2694V18.7736C16.1946 18.754 16.1865 18.7353 16.1719 18.7215C16.1574 18.7077 16.1377 18.7 16.1171 18.7H7.87596C7.85541 18.7 7.83569 18.7077 7.82116 18.7215C7.80663 18.7353 7.79847 18.754 7.79847 18.7736V19.2694C7.79835 19.2791 7.80027 19.2888 7.80411 19.2978C7.80796 19.3068 7.81364 19.315 7.82085 19.322C7.82806 19.3289 7.83664 19.3344 7.8461 19.3381C7.85556 19.3419 7.86571 19.3438 7.87596 19.3438Z" fill="white"/>
</svg>
